Coordinates
version=1
nRows=13
nColumns=22
inDegrees=yes

Units are S.I. units (second, meters, Newtons, ...)
If the header above contains a line with 'inDegrees', this indicates whether rotational values are in degrees (yes) or radians (no).

endheader
time	pelvis_tilt	pelvis_list	pelvis_rotation	pelvis_tx	pelvis_ty	pelvis_tz	hip_flexion_r	hip_adduction_r	hip_rotation_r	knee_angle_r	ankle_angle_r	subtalar_angle_r	hip_flexion_l	hip_adduction_l	hip_rotation_l	knee_angle_l	ankle_angle_l	subtalar_angle_l	lumbar_extension	lumbar_bending	lumbar_rotation
      4.45000000	      4.65229656	     -1.46897766	      2.49224326	     -1.15294960	      0.94536874	     -0.01874294	    -10.60813418	      7.41435223	     -5.40100130	    -10.27984683	     16.31152789	     -4.81471549	     19.39502421	     -6.23629163	     -0.60882440	    -42.91782371	     19.75536654	     -8.25755240	    -17.00506136	      2.75773108	     -1.79664637
      4.46000000	      4.58996921	     -1.57653858	      2.40509615	     -1.15669390	      0.94540899	     -0.01898398	    -10.31915082	      7.48668432	     -5.32871608	    -10.23300327	     16.23822675	     -4.87834529	     19.06236056	     -6.40360677	     -0.23330025	    -44.10694321	     20.22801775	     -8.39699752	    -16.88180853	      2.95831952	     -1.87586729
      4.47000000	      4.58911906	     -1.68291344	      2.32079876	     -1.16029271	      0.94551262	     -0.01928690	    -10.07872241	      7.55337649	     -5.30360831	    -10.23576471	     16.21397556	     -4.91684750	     18.63163598	     -6.57189567	      0.07023750	    -45.21591342	     20.64535581	     -8.46245502	    -16.82216496	      3.15789915	     -1.93608415
      4.48000000	      4.56046492	     -1.81641354	      2.24966448	     -1.16380975	      0.94555341	     -0.01965392	     -9.78211783	      7.64725286	     -5.24907627	    -10.29294011	     16.12590712	     -4.97141019	     18.22122749	     -6.75317417	      0.36008239	    -46.24794986	     21.01453268	     -8.58578179	    -16.72569519	      3.38814942	     -2.03222440
      4.49000000	      4.48406707	     -1.95104826	      2.19505588	     -1.16722007	      0.94552178	     -0.02010964	     -9.41014643	      7.73858248	     -5.16526568	    -10.40564987	     16.01258196	     -5.06813927	     17.84339589	     -6.91522681	      0.63098737	    -47.17500075	     21.31966626	     -8.84772491	    -16.55818244	      3.62276141	     -2.16249965
      4.50000000	      4.49595892	     -2.07936311	      2.13697897	     -1.17047401	      0.94563853	     -0.02059651	     -9.13031291	      7.81757235	     -5.15284033	    -10.53906878	     15.96044984	     -5.10805599	     17.31683148	     -7.08374655	      0.81852850	    -47.94212727	     21.57660658	     -8.92288833	    -16.48923962	      3.84477322	     -2.26280379
      4.51000000	      4.46953720	     -2.22001725	      2.10285578	     -1.17362246	      0.94570043	     -0.02116246	     -8.80243921	      7.91156353	     -5.10933011	    -10.69299067	     15.86670733	     -5.16195697	     16.80898607	     -7.24533855	      1.00265923	    -48.56256053	     21.79700964	     -9.03653764	    -16.36222187	      4.08305732	     -2.39974548
      4.52000000	      4.40164627	     -2.35413711	      2.09169879	     -1.17666662	      0.94571572	     -0.02181489	     -8.42376540	      7.99953611	     -5.04401224	    -10.86718033	     15.77370491	     -5.24901355	     16.31194825	     -7.37926635	      1.17736476	    -49.00178145	     21.96049968	     -9.22577094	    -16.17483528	      4.31707443	     -2.57540711
      4.53000000	      4.38039400	     -2.47090258	      2.07270611	     -1.17958011	      0.94581828	     -0.02249378	     -8.08779753	      8.06358756	     -5.03070931	    -11.07336179	     15.71688984	     -5.29242158	     15.70692897	     -7.50278406	      1.27170480	    -49.22543315	     22.02541187	     -9.28583182	    -16.03815578	      4.52327651	     -2.72135667
      4.54000000	      4.32727223	     -2.59074750	      2.08070034	     -1.18238808	      0.94586055	     -0.02325515	     -7.72708213	      8.13648635	     -5.00554330	    -11.27088814	     15.64515773	     -5.35729603	     15.10679903	     -7.61327594	      1.35330412	    -49.25193112	     22.04639616	     -9.36081439	    -15.85363519	      4.73560664	     -2.90307276
      4.55000000	      4.26430639	     -2.70033935	      2.10295460	     -1.18508586	      0.94587365	     -0.02408832	     -7.37177198	      8.20395557	     -4.94459926	    -11.45372741	     15.60405459	     -5.39444018	     14.47732877	     -7.70268834	      1.40158419	    -49.06318783	     21.97825743	     -9.39785695	    -15.65101540	      4.93998323	     -3.11292503
      4.56000000	      4.18305166	     -2.81201493	      2.13975477	     -1.18767331	      0.94582492	     -0.02496654	     -6.98976737	      8.27211401	     -4.96606349	    -11.66243125	     15.53488040	     -5.49630882	     13.83324447	     -7.80001689	      1.38881526	    -48.66079120	     21.82363771	     -9.45738572	    -15.41884973	      5.14027376	     -3.30521750
      4.57000000	      4.09265578	     -2.92434576	      2.18919646	     -1.19016646	      0.94571205	     -0.02591248	     -6.61250110	      8.34487067	     -4.96743739	    -11.85768002	     15.49203611	     -5.60479175	     13.16834269	     -7.89264280	      1.33625972	    -48.05374632	     21.60069413	     -9.49375930	    -15.17446540	      5.34555418	     -3.52610723
